HIERARCHY
ROOT Hips
{
	OFFSET 0.000000 87.230942 0.000000
	CHANNELS 6 Xposition Yposition Zposition Xrotation Yrotation Zrotation
	JOINT Pelvis
	{
		OFFSET 0.000000 0.000000 0.000000
		CHANNELS 3 Xrotation Yrotation Zrotation
		JOINT LeftUpLeg
		{
			OFFSET 12.017000 -9.376404 -2.439400
			CHANNELS 3 Xrotation Yrotation Zrotation
			JOINT LeftLeg
			{
				OFFSET -0.007312 -32.846973 2.110600
				CHANNELS 3 Xrotation Yrotation Zrotation
				JOINT LeftFoot
				{
					OFFSET 0.007312 -32.065170 -0.570400
					CHANNELS 3 Xrotation Yrotation Zrotation
					JOINT LeftToeBase
					{
						OFFSET 0.728300 -11.045900 13.180700
						CHANNELS 3 Xrotation Yrotation Zrotation
						End Site
						{
							OFFSET 0.000000 17.212589 0.000000
						}
					}
				}
				JOINT LeftPantLeg
				{
					OFFSET 0.002788 -16.709013 -3.143600
					CHANNELS 3 Xrotation Yrotation Zrotation
					End Site
					{
						OFFSET -0.605125 24.528742 0.000000
					}
				}
			}
			JOINT Left_Butt
			{
				OFFSET -6.630234 1.326584 -3.183700
				CHANNELS 3 Xrotation Yrotation Zrotation
				End Site
				{
					OFFSET -0.498041 20.188049 0.000000
				}
			}
		}
		JOINT RightUpLeg
		{
			OFFSET -11.717000 -9.376404 -2.439400
			CHANNELS 3 Xrotation Yrotation Zrotation
			JOINT RightLeg
			{
				OFFSET -0.003241 -32.846912 2.110600
				CHANNELS 3 Xrotation Yrotation Zrotation
				JOINT RightFoot
				{
					OFFSET 0.003241 -32.065136 -0.570500
					CHANNELS 3 Xrotation Yrotation Zrotation
					JOINT RightToeBase
					{
						OFFSET -0.728300 -11.045901 13.180700
						CHANNELS 3 Xrotation Yrotation Zrotation
						End Site
						{
							OFFSET 0.000000 17.212593 0.000000
						}
					}
				}
				JOINT RightPantLeg
				{
					OFFSET 0.008142 -16.708982 -3.143700
					CHANNELS 3 Xrotation Yrotation Zrotation
					End Site
					{
						OFFSET 0.605088 24.528715 0.000000
					}
				}
			}
			JOINT Right_Butt
			{
				OFFSET 6.630732 1.326584 -3.183700
				CHANNELS 3 Xrotation Yrotation Zrotation
				End Site
				{
					OFFSET 0.498015 20.188240 0.000000
				}
			}
		}
	}
	JOINT Spine
	{
		OFFSET -0.062400 7.848404 3.918300
		CHANNELS 3 Xrotation Yrotation Zrotation
		JOINT Spine1
		{
			OFFSET -0.072800 11.422302 0.713400
			CHANNELS 3 Xrotation Yrotation Zrotation
			JOINT Spine2
			{
				OFFSET -0.083200 13.054001 -1.931600
				CHANNELS 3 Xrotation Yrotation Zrotation
				JOINT Neck
				{
					OFFSET -0.092200 14.121796 -5.138800
					CHANNELS 3 Xrotation Yrotation Zrotation
					JOINT Head
					{
						OFFSET 0.000200 10.447403 -0.842000
						CHANNELS 3 Xrotation Yrotation Zrotation
						JOINT Visor
						{
							OFFSET 0.457100 25.671204 16.550400
							CHANNELS 3 Xrotation Yrotation Zrotation
							End Site
							{
								OFFSET 0.000000 26.061493 0.000000
							}
						}
						JOINT HairMidA
						{
							OFFSET 0.459400 31.585403 8.437400
							CHANNELS 3 Xrotation Yrotation Zrotation
							End Site
							{
								OFFSET 0.000000 26.061493 0.000000
							}
						}
						JOINT HairMidB
						{
							OFFSET 0.464000 33.309204 -8.389700
							CHANNELS 3 Xrotation Yrotation Zrotation
							End Site
							{
								OFFSET 0.000000 26.061493 0.000000
							}
						}
						JOINT HairMidC
						{
							OFFSET 0.466600 27.991196 -17.375099
							CHANNELS 3 Xrotation Yrotation Zrotation
							End Site
							{
								OFFSET 0.000000 26.061493 0.000000
							}
						}
						JOINT HairMidD
						{
							OFFSET 0.467700 17.888092 -21.169500
							CHANNELS 3 Xrotation Yrotation Zrotation
							End Site
							{
								OFFSET 0.000000 26.061493 0.000000
							}
						}
						JOINT HairMidE
						{
							OFFSET 5.325700 3.514603 -14.369699
							CHANNELS 3 Xrotation Yrotation Zrotation
							End Site
							{
								OFFSET 0.000000 26.061493 0.000000
							}
						}
						JOINT HairMidF
						{
							OFFSET -4.394100 3.514603 -14.372400
							CHANNELS 3 Xrotation Yrotation Zrotation
							End Site
							{
								OFFSET 0.000000 26.061493 0.000000
							}
						}
						JOINT HairLeftA
						{
							OFFSET 15.319900 25.746506 2.623300
							CHANNELS 3 Xrotation Yrotation Zrotation
							End Site
							{
								OFFSET 0.000000 26.061493 0.000000
							}
						}
						JOINT HairLeftB
						{
							OFFSET 12.619500 29.289398 -8.731499
							CHANNELS 3 Xrotation Yrotation Zrotation
							End Site
							{
								OFFSET 0.000000 26.061493 0.000000
							}
						}
						JOINT HairLeftC
						{
							OFFSET 15.714800 15.959900 2.909800
							CHANNELS 3 Xrotation Yrotation Zrotation
							End Site
							{
								OFFSET 0.000000 26.061493 0.000000
							}
						}
						JOINT HairLeftD
						{
							OFFSET 16.101700 18.437408 -7.553200
							CHANNELS 3 Xrotation Yrotation Zrotation
							End Site
							{
								OFFSET 0.000000 26.061493 0.000000
							}
						}
						JOINT HairLeftE
						{
							OFFSET 9.731900 17.915009 -18.316799
							CHANNELS 3 Xrotation Yrotation Zrotation
							End Site
							{
								OFFSET 0.000000 26.061493 0.000000
							}
						}
						JOINT HairLeftF
						{
							OFFSET 11.204300 4.953598 -9.668100
							CHANNELS 3 Xrotation Yrotation Zrotation
							End Site
							{
								OFFSET 0.000000 26.061493 0.000000
							}
						}
						JOINT HairRightA
						{
							OFFSET -14.397900 25.746307 2.615100
							CHANNELS 3 Xrotation Yrotation Zrotation
							End Site
							{
								OFFSET 0.000000 26.061493 0.000000
							}
						}
						JOINT HairRightB
						{
							OFFSET -11.691200 29.289200 -8.738199
							CHANNELS 3 Xrotation Yrotation Zrotation
							End Site
							{
								OFFSET 0.000000 26.061493 0.000000
							}
						}
						JOINT HairRightC
						{
							OFFSET -14.792900 15.959702 2.901400
							CHANNELS 3 Xrotation Yrotation Zrotation
							End Site
							{
								OFFSET 0.000000 26.061493 0.000000
							}
						}
						JOINT HairRightD
						{
							OFFSET -15.174000 18.437195 -7.561900
							CHANNELS 3 Xrotation Yrotation Zrotation
							End Site
							{
								OFFSET 0.000000 26.061493 0.000000
							}
						}
						JOINT HairRightE
						{
							OFFSET -8.798200 17.914902 -18.322001
							CHANNELS 3 Xrotation Yrotation Zrotation
							End Site
							{
								OFFSET 0.000000 26.061493 0.000000
							}
						}
						JOINT HairRightF
						{
							OFFSET -10.275200 4.953506 -9.674099
							CHANNELS 3 Xrotation Yrotation Zrotation
							End Site
							{
								OFFSET 0.000000 26.061493 0.000000
							}
						}
					}
				}
				JOINT LeftShoulder
				{
					OFFSET 5.133500 7.341202 -1.867600
					CHANNELS 3 Xrotation Yrotation Zrotation
					JOINT LeftArm
					{
						OFFSET 8.072663 0.936867 -2.176600
						CHANNELS 3 Xrotation Yrotation Zrotation
						JOINT LeftForeArm
						{
							OFFSET 31.271999 0.000000 0.000000
							CHANNELS 3 Xrotation Yrotation Zrotation
							JOINT LeftHand
							{
								OFFSET 31.771030 0.000000 0.000000
								CHANNELS 3 Xrotation Yrotation Zrotation
								JOINT LeftHandThumb1
								{
									OFFSET 2.886520 -2.557846 4.416640
									CHANNELS 3 Xrotation Yrotation Zrotation
									JOINT LeftHandThumb2
									{
										OFFSET 2.371025 -1.368912 1.368911
										CHANNELS 3 Xrotation Yrotation Zrotation
										JOINT LeftHandThumb3
										{
											OFFSET 2.243378 -1.295212 1.295213
											CHANNELS 3 Xrotation Yrotation Zrotation
											End Site
											{
												OFFSET -0.332611 2.876945 0.020015
											}
										}
									}
								}
								JOINT LeftHandIndex1
								{
									OFFSET 8.568985 -0.641945 3.119977
									CHANNELS 3 Xrotation Yrotation Zrotation
									JOINT LeftHandIndex2
									{
										OFFSET 3.348503 0.000000 0.000000
										CHANNELS 3 Xrotation Yrotation Zrotation
										JOINT LeftHandIndex3
										{
											OFFSET 3.314552 0.000000 0.000000
											CHANNELS 3 Xrotation Yrotation Zrotation
											End Site
											{
												OFFSET -1.032898 3.075485 0.678796
											}
										}
									}
								}
								JOINT LeftHandMiddle1
								{
									OFFSET 8.124603 0.000000 0.000000
									CHANNELS 3 Xrotation Yrotation Zrotation
									JOINT LeftHandMiddle2
									{
										OFFSET 4.166275 0.000000 0.000000
										CHANNELS 3 Xrotation Yrotation Zrotation
										JOINT LeftHandMiddle3
										{
											OFFSET 3.018135 0.000000 0.000000
											CHANNELS 3 Xrotation Yrotation Zrotation
											End Site
											{
												OFFSET -1.032700 2.767982 0.617226
											}
										}
									}
								}
								JOINT LeftHandRing1
								{
									OFFSET 8.571686 -0.031357 -2.884048
									CHANNELS 3 Xrotation Yrotation Zrotation
									JOINT LeftHandRing2
									{
										OFFSET 3.671181 0.000000 0.000000
										CHANNELS 3 Xrotation Yrotation Zrotation
										JOINT LeftHandRing3
										{
											OFFSET 2.728851 0.000000 0.000000
											CHANNELS 3 Xrotation Yrotation Zrotation
											End Site
											{
												OFFSET -0.815796 2.539223 0.577389
											}
										}
									}
								}
								JOINT LeftHandPinky1
								{
									OFFSET 7.854515 -0.675232 -5.213020
									CHANNELS 3 Xrotation Yrotation Zrotation
									JOINT LeftHandPinky2
									{
										OFFSET 3.068596 0.000000 0.000000
										CHANNELS 3 Xrotation Yrotation Zrotation
										JOINT LeftHandPinky3
										{
											OFFSET 2.396042 0.000000 0.000000
											CHANNELS 3 Xrotation Yrotation Zrotation
											End Site
											{
												OFFSET -0.524597 2.267998 0.567429
											}
										}
									}
								}
							}
							JOINT LeftSleeve
							{
								OFFSET 19.684509 -0.200119 0.476146
								CHANNELS 3 Xrotation Yrotation Zrotation
								End Site
								{
									OFFSET -0.031017 25.731133 -0.002868
								}
							}
						}
					}
				}
				JOINT RightShoulder
				{
					OFFSET -4.395900 7.341202 -1.870200
					CHANNELS 3 Xrotation Yrotation Zrotation
					JOINT RightArm
					{
						OFFSET -8.071453 0.936867 -2.181100
						CHANNELS 3 Xrotation Yrotation Zrotation
						JOINT RightForeArm
						{
							OFFSET -31.272011 0.000000 0.000000
							CHANNELS 3 Xrotation Yrotation Zrotation
							JOINT RightHand
							{
								OFFSET -31.771019 0.000000 0.000000
								CHANNELS 3 Xrotation Yrotation Zrotation
								JOINT RightHandThumb1
								{
									OFFSET -2.886520 -2.557808 4.416626
									CHANNELS 3 Xrotation Yrotation Zrotation
									JOINT RightHandThumb2
									{
										OFFSET -2.371056 -1.368927 1.368928
										CHANNELS 3 Xrotation Yrotation Zrotation
										JOINT RightHandThumb3
										{
											OFFSET -2.243362 -1.295204 1.295206
											CHANNELS 3 Xrotation Yrotation Zrotation
											End Site
											{
												OFFSET 0.332642 2.876938 0.020047
											}
										}
									}
								}
								JOINT RightHandIndex1
								{
									OFFSET -8.568993 -0.641953 3.120017
									CHANNELS 3 Xrotation Yrotation Zrotation
									JOINT RightHandIndex2
									{
										OFFSET -3.348518 0.000000 0.000000
										CHANNELS 3 Xrotation Yrotation Zrotation
										JOINT RightHandIndex3
										{
											OFFSET -3.314552 0.000000 0.000000
											CHANNELS 3 Xrotation Yrotation Zrotation
											End Site
											{
												OFFSET 1.032898 3.075478 0.678804
											}
										}
									}
								}
								JOINT RightHandMiddle1
								{
									OFFSET -8.124588 0.000000 0.000000
									CHANNELS 3 Xrotation Yrotation Zrotation
									JOINT RightHandMiddle2
									{
										OFFSET -4.166275 0.000000 0.000000
										CHANNELS 3 Xrotation Yrotation Zrotation
										JOINT RightHandMiddle3
										{
											OFFSET -3.018097 0.000000 0.000000
											CHANNELS 3 Xrotation Yrotation Zrotation
											End Site
											{
												OFFSET 1.032700 2.767937 0.617197
											}
										}
									}
								}
								JOINT RightHandRing1
								{
									OFFSET -8.571747 -0.031349 -2.884061
									CHANNELS 3 Xrotation Yrotation Zrotation
									JOINT RightHandRing2
									{
										OFFSET -3.671204 0.000000 0.000000
										CHANNELS 3 Xrotation Yrotation Zrotation
										JOINT RightHandRing3
										{
											OFFSET -2.728874 0.000000 0.000000
											CHANNELS 3 Xrotation Yrotation Zrotation
											End Site
											{
												OFFSET 0.815804 2.539261 0.577413
											}
										}
									}
								}
								JOINT RightHandPinky1
								{
									OFFSET -7.854561 -0.675247 -5.212970
									CHANNELS 3 Xrotation Yrotation Zrotation
									JOINT RightHandPinky2
									{
										OFFSET -3.068550 0.000000 0.000000
										CHANNELS 3 Xrotation Yrotation Zrotation
										JOINT RightHandPinky3
										{
											OFFSET -2.395981 0.000000 0.000000
											CHANNELS 3 Xrotation Yrotation Zrotation
											End Site
											{
												OFFSET 0.524605 2.267952 0.567413
											}
										}
									}
								}
							}
							JOINT RightSleeve
							{
								OFFSET -19.684753 -0.200165 0.476065
								CHANNELS 3 Xrotation Yrotation Zrotation
								End Site
								{
									OFFSET 0.031342 25.731255 -0.002917
								}
							}
						}
					}
				}
				JOINT Hood
				{
					OFFSET 0.369700 14.447800 -5.317800
					CHANNELS 3 Xrotation Yrotation Zrotation
					JOINT Hood1
					{
						OFFSET 0.001700 -5.553802 -5.895100
						CHANNELS 3 Xrotation Yrotation Zrotation
						JOINT Hood2
						{
							OFFSET -0.000200 -8.380501 0.763600
							CHANNELS 3 Xrotation Yrotation Zrotation
							End Site
							{
								OFFSET 0.000000 8.415215 0.000000
							}
						}
					}
				}
				JOINT Left_Breast
				{
					OFFSET 5.682500 3.120102 3.188800
					CHANNELS 3 Xrotation Yrotation Zrotation
					End Site
					{
						OFFSET 0.000000 10.528564 0.000000
					}
				}
				JOINT Right_Breast
				{
					OFFSET -4.947600 3.120102 3.185900
					CHANNELS 3 Xrotation Yrotation Zrotation
					End Site
					{
						OFFSET 0.000000 10.528564 0.000000
					}
				}
				JOINT Whistle
				{
					OFFSET 0.368200 11.471298 0.095400
					CHANNELS 3 Xrotation Yrotation Zrotation
					JOINT Whistle1
					{
						OFFSET -0.002000 -6.349899 7.479800
						CHANNELS 3 Xrotation Yrotation Zrotation
						JOINT Whistle2
						{
							OFFSET -0.001300 -8.217598 4.717600
							CHANNELS 3 Xrotation Yrotation Zrotation
							End Site
							{
								OFFSET 0.000000 9.475479 0.000000
							}
						}
					}
				}
			}
		}
		JOINT Belly
		{
			OFFSET 0.212400 1.593002 3.163700
			CHANNELS 3 Xrotation Yrotation Zrotation
			End Site
			{
				OFFSET 0.000000 7.496635 0.000000
			}
		}
	}
	JOINT FitGrandmaFacialAnim_Joint
	{
		OFFSET 1.150000 -86.211197 -1.220100
		CHANNELS 3 Xrotation Yrotation Zrotation
		End Site
		{
			OFFSET 0.000000 31.666618 0.000000
		}
	}
}
MOTION
Frames: 4
Frame Time: 0.016667
-4.364048 67.866531 14.085208 15.148508 45.526889 -6.949712 0.000001 -0.000000 0.000000 -73.360589 -10.643737 -28.442595 67.374741 -49.560809 5.202632 -4.803968 -1.246875 0.693389 0.000000 -0.000000 -0.000000 0.000000 0.000004 -0.000001 -0.000004 -0.000000 -0.000000 25.399110 -47.406086 10.199614 42.747128 14.048844 -8.828293 -28.928433 0.889919 -6.316864 -0.000004 0.000000 -0.000002 -0.000003 0.000000 0.000001 0.000001 0.000000 0.000000 8.105971 8.633416 0.165578 2.381666 15.779014 -0.339819 2.403996 15.779105 -0.339336 24.492246 -34.509599 6.782146 -25.202423 -35.567479 -2.580324 0.000001 0.000002 -0.000000 0.000001 0.000002 -0.000000 0.000001 0.000002 -0.000000 0.000001 0.000002 -0.000000 0.000001 0.000002 -0.000000 0.000001 0.000002 -0.000000 0.000001 0.000002 -0.000000 0.000001 0.000002 -0.000000 0.000001 0.000002 -0.000000 0.000001 0.000002 -0.000000 0.000001 0.000002 -0.000000 0.000001 0.000002 -0.000000 0.000001 0.000002 -0.000000 0.000001 0.000002 -0.000000 0.000001 0.000002 -0.000000 0.000001 0.000002 -0.000000 0.000001 0.000002 -0.000000 0.000001 0.000002 -0.000000 0.000001 0.000002 -0.000000 3.133501 -2.562307 -3.584629 -38.240754 7.071629 -29.653567 51.130315 1.007843 17.797866 -12.087051 -6.543432 6.823690 0.717874 -6.071424 10.111278 2.373401 19.986107 -2.038333 -0.000000 -0.000001 -0.000002 9.749555 -2.596967 0.987083 -0.005784 0.241064 -8.886562 0.000001 -0.000000 -0.000001 9.008213 3.812757 -14.287951 0.043543 0.559791 -9.088834 0.000002 0.000000 0.000000 10.700120 16.687213 -35.234846 0.141868 0.238704 -28.896939 -0.000000 0.000000 0.000000 11.696285 25.216760 -38.134063 0.132795 0.212981 -32.263549 -0.000002 -0.000001 0.000001 -0.000000 0.000001 -0.000000 -3.243334 8.889423 -18.987007 -18.337455 -10.441352 2.113101 144.016588 167.285908 -173.359395 -12.660206 -2.965767 -5.790685 9.279844 0.855307 2.186158 1.377825 -17.419909 3.021601 0.000001 0.000001 -0.000000 8.977433 0.914847 -26.573708 -0.055953 -0.245621 0.029079 -0.000000 -0.000002 0.000001 7.645427 -7.256359 -8.401668 0.102449 -0.524307 3.712653 0.000001 -0.000001 0.000000 6.495331 -19.152614 6.388312 0.205307 -0.177334 17.221791 0.000003 -0.000002 -0.000003 8.267293 -27.952807 40.018072 0.357935 -0.175301 49.203187 -0.000003 0.000001 0.000001 0.000001 -0.000000 -0.000001 -0.000001 -0.000000 -0.000000 -0.000001 -0.000000 -0.000000 -0.000001 -0.000000 -0.000000 -0.000001 -0.000000 -0.000000 -0.000001 -0.000000 -0.000000 -0.000001 -0.000000 -0.000002 -0.000001 -0.000000 0.000000 -0.000001 -0.000000 0.000000 0.000001 -0.000000 -0.000000 0.000001 -0.000000 0.000000 
-4.213240 68.053307 14.100936 14.752874 44.090517 -6.622873 -0.000000 0.000001 -0.000000 -72.964493 -10.723822 -27.661332 67.347509 -48.874006 5.075714 -5.119020 -1.267899 0.740050 0.000000 -0.000002 -0.000000 -0.000000 -0.000000 0.000000 -0.000003 0.000000 0.000000 24.316257 -46.216253 8.871168 42.883855 14.635717 -8.806269 -28.620243 0.540330 -6.555956 -0.000004 0.000000 -0.000001 -0.000003 0.000000 -0.000001 0.000002 -0.000001 -0.000001 8.138290 8.569990 0.141648 2.453884 15.715405 -0.410858 2.476206 15.715470 -0.410371 24.483093 -34.297809 7.138973 -25.083002 -35.421955 -2.270466 -0.000000 0.000000 0.000001 -0.000000 0.000000 0.000001 -0.000000 0.000000 0.000001 -0.000000 0.000000 0.000001 -0.000000 0.000000 0.000001 -0.000000 0.000000 0.000001 -0.000000 0.000000 0.000001 -0.000000 0.000000 0.000001 -0.000000 0.000000 0.000001 -0.000000 0.000000 0.000001 -0.000000 0.000000 0.000001 -0.000000 0.000000 0.000001 -0.000000 0.000000 0.000001 -0.000000 0.000000 0.000001 -0.000000 0.000000 0.000001 -0.000000 0.000000 0.000001 -0.000000 0.000000 0.000001 -0.000000 0.000000 0.000001 -0.000000 0.000000 0.000001 3.030145 -2.053838 -3.444212 -34.893633 7.814705 -28.841416 51.215234 1.798517 17.534528 -13.743622 -6.963591 5.081478 0.690152 -6.257993 9.347857 2.373402 19.986112 -2.038336 0.000001 0.000002 -0.000001 9.889667 -2.215685 0.150838 -0.005914 0.241171 -9.214055 0.000000 0.000005 -0.000004 9.055362 4.126251 -14.668280 0.045004 0.562262 -9.437238 -0.000005 0.000000 0.000002 10.739755 16.814777 -35.132157 0.137668 0.239681 -28.699328 -0.000002 -0.000001 -0.000000 11.760243 25.391566 -38.044294 0.132608 0.213285 -32.330373 -0.000000 -0.000003 0.000001 0.000002 0.000001 -0.000001 -3.234087 9.381069 -18.988035 -20.179970 -10.125685 2.111673 144.235208 166.478744 -172.151612 -12.150582 -4.188273 -6.691104 9.387996 0.822760 2.124779 1.377805 -17.419921 3.021602 0.000003 -0.000001 0.000000 9.067880 0.695017 -25.814418 -0.051490 -0.245702 0.064856 -0.000001 -0.000002 0.000003 7.626687 -7.125912 -7.923843 0.102852 -0.525824 3.951772 0.000005 -0.000001 -0.000002 6.454384 -18.622989 6.787647 0.200237 -0.179015 17.261567 0.000003 0.000000 0.000001 7.978934 -28.024649 39.947133 0.355181 -0.175823 48.983310 -0.000002 0.000000 0.000001 0.000002 0.000001 0.000001 0.000001 -0.000000 0.000000 0.000001 -0.000000 0.000000 0.000001 -0.000000 0.000000 0.000001 -0.000000 0.000000 0.000001 -0.000000 0.000000 0.000001 -0.000000 -0.000001 -0.000001 -0.000000 0.000001 -0.000001 -0.000000 0.000001 0.000002 -0.000003 -0.000000 -0.000000 0.000001 -0.000000 
-4.048094 68.254379 14.115817 14.240919 42.490467 -6.208254 0.000001 0.000002 -0.000000 -72.454360 -10.768025 -26.778554 67.352557 -48.104076 4.927803 -5.478274 -1.293832 0.789158 0.000000 -0.000002 -0.000000 -0.000000 0.000001 0.000000 -0.000003 0.000000 0.000001 23.263310 -44.944475 7.472983 42.822540 13.841055 -8.821410 -28.317507 1.406521 -6.008637 -0.000003 0.000001 -0.000003 -0.000003 -0.000001 0.000000 0.000001 -0.000000 0.000001 8.161608 8.499629 0.101392 2.510251 15.645952 -0.515674 2.532588 15.646046 -0.515181 24.400704 -34.088252 7.703134 -24.875682 -35.237643 -1.959293 -0.000000 -0.000001 0.000001 -0.000000 -0.000001 0.000001 -0.000000 -0.000001 0.000001 -0.000000 -0.000001 0.000001 -0.000000 -0.000001 0.000001 -0.000000 -0.000001 0.000001 -0.000000 -0.000001 0.000001 -0.000000 -0.000001 0.000001 -0.000000 -0.000001 0.000001 -0.000000 -0.000001 0.000001 -0.000000 -0.000001 0.000001 -0.000000 -0.000001 0.000001 -0.000000 -0.000001 0.000001 -0.000000 -0.000001 0.000001 -0.000000 -0.000001 0.000001 -0.000000 -0.000001 0.000001 -0.000000 -0.000001 0.000001 -0.000000 -0.000001 0.000001 -0.000000 -0.000001 0.000001 2.904506 -1.393837 -3.364781 -31.432654 8.742958 -28.038413 51.355704 2.474092 17.546587 -14.985693 -7.308004 3.153645 0.630773 -6.463487 8.584037 2.373405 19.986105 -2.038335 0.000002 0.000002 -0.000003 10.025382 -1.815692 -0.661309 -0.006041 0.241282 -9.522527 0.000003 0.000000 0.000001 9.103780 4.430290 -15.033817 0.046491 0.564842 -9.784031 -0.000002 -0.000001 -0.000001 10.772706 16.882119 -35.025306 0.133021 0.240884 -28.494052 -0.000001 0.000000 0.000002 11.843037 25.575893 -38.001127 0.132581 0.213747 -32.423854 0.000001 0.000000 -0.000001 0.000005 0.000000 0.000001 -3.144805 9.710534 -18.951712 -22.316885 -9.294410 2.336565 144.310860 166.066187 -170.952094 -11.502438 -5.129986 -7.348380 9.669553 0.616300 2.214286 1.377762 -17.419906 3.021584 -0.000000 -0.000000 0.000001 9.166954 0.351630 -24.705358 -0.047731 -0.246346 0.536674 -0.000003 0.000000 -0.000000 7.623385 -7.047098 -7.050680 0.103808 -0.528102 4.369249 -0.000001 0.000000 -0.000001 6.475517 -18.077217 7.614140 0.194426 -0.181327 17.489908 -0.000002 -0.000001 -0.000001 7.820558 -27.942582 40.349978 0.353080 -0.176009 48.987117 -0.000003 0.000001 -0.000000 -0.000003 -0.000000 -0.000000 0.000001 -0.000000 -0.000000 0.000001 -0.000000 -0.000000 0.000001 -0.000000 -0.000000 0.000001 -0.000000 -0.000000 0.000001 -0.000000 -0.000000 0.000001 -0.000000 -0.000001 0.000001 -0.000000 0.000001 0.000001 -0.000000 0.000001 0.000001 0.000001 -0.000000 0.000001 0.000002 -0.000000 
-3.871428 68.463821 14.120893 13.644542 40.801979 -5.741378 -0.000001 -0.000002 0.000001 -71.856800 -10.805504 -25.871327 67.382309 -47.241598 4.780496 -5.878368 -1.321087 0.816872 -0.000000 -0.000000 0.000000 0.000000 -0.000001 -0.000000 -0.000003 -0.000001 -0.000000 22.263125 -43.648167 5.979375 42.927380 14.027521 -8.786322 -28.001728 1.480280 -5.898358 0.000001 0.000001 -0.000003 -0.000004 -0.000001 0.000001 0.000000 0.000001 0.000001 8.196966 8.398415 0.058176 2.590916 15.519599 -0.627978 2.613254 15.519672 -0.627483 23.964938 -33.896473 8.093903 -24.622557 -35.034222 -1.643721 0.000001 0.000001 0.000002 0.000001 0.000001 0.000002 0.000001 0.000001 0.000002 0.000001 0.000001 0.000002 0.000001 0.000001 0.000002 0.000001 0.000001 0.000002 0.000001 0.000001 0.000002 0.000001 0.000001 0.000002 0.000001 0.000001 0.000002 0.000001 0.000001 0.000002 0.000001 0.000001 0.000002 0.000001 0.000001 0.000002 0.000001 0.000001 0.000002 0.000001 0.000001 0.000002 0.000001 0.000001 0.000002 0.000001 0.000001 0.000002 0.000001 0.000001 0.000002 0.000001 0.000001 0.000002 0.000001 0.000001 0.000002 2.760281 -0.547890 -3.344332 -27.854198 9.898208 -27.279955 51.514362 3.115305 17.933608 -15.929261 -7.466995 0.985765 0.527107 -6.696444 7.834179 2.373401 19.986107 -2.038337 -0.000000 0.000001 0.000000 10.153715 -1.387409 -1.422218 -0.006228 0.241356 -9.803552 0.000005 -0.000001 -0.000001 9.151810 4.724948 -15.358929 0.048179 0.567327 -10.114808 -0.000004 0.000000 -0.000001 10.792631 16.881081 -34.884587 0.127709 0.242457 -28.266096 -0.000001 0.000002 0.000004 11.932667 25.749494 -37.966689 0.132585 0.214259 -32.522106 0.000001 -0.000003 0.000005 0.000005 -0.000001 0.000001 -3.150917 9.830088 -18.703807 -24.875211 -7.756477 2.628347 144.587332 165.957478 -169.821821 -10.795642 -5.821799 -7.801422 10.147166 0.218073 2.483478 1.377795 -17.419899 3.021634 0.000001 -0.000001 0.000000 9.294100 -0.101609 -23.043802 -0.044946 -0.247242 1.135093 -0.000007 -0.000001 0.000005 7.644634 -7.010150 -5.719503 0.105639 -0.531404 5.013997 0.000002 -0.000001 -0.000002 6.566107 -17.505230 8.934415 0.187936 -0.184179 17.963240 0.000005 -0.000003 -0.000001 7.824111 -27.677468 41.312491 0.351846 -0.175954 49.270164 -0.000003 0.000001 0.000001 -0.000001 -0.000000 0.000000 -0.000001 0.000000 0.000000 -0.000001 0.000000 0.000000 -0.000001 0.000000 0.000000 -0.000001 0.000000 0.000000 -0.000001 0.000000 0.000000 -0.000001 0.000000 -0.000000 -0.000002 -0.000000 0.000001 -0.000002 -0.000000 0.000001 0.000001 0.000001 -0.000000 -0.000001 -0.000002 0.000001 
